<?xml version="1.0" encoding="UTF-8"?>
<svg id="Layer_2" data-name="Layer 2" xmlns="http://www.w3.org/2000/svg" viewBox="0 0 58.28 57.73">
  <defs>
    <style>
      .cls-1 {
        fill: #1d1d1b;
      }
    </style>
  </defs>
  <g id="Layer_1-2" data-name="Layer 1">
    <g>
      <g>
        <path class="cls-1" d="M45.78,7.74c-.18,0-.35,0-.53,.01h2.27s-1.74-.01-1.74-.01Zm3.58,9.22h-3.58c-.2,0-.4,0-.6,.01h4.72v-.04c-.18,.03-.36,.03-.54,.03Zm-1.84-7.74h-1.74c-.17,0-.33,0-.49,.01h2.23Z"/>
        <g>
          <path class="cls-1" d="M45.78,7.74c-.18,0-.35,0-.53,.01h2.27s-1.74-.01-1.74-.01Zm1.74,1.48h-1.74c-.17,0-.33,0-.49,.01h2.23Z"/>
          <path class="cls-1" d="M58.21,9.22c-.26,1.99-1.18,3.77-2.53,5.12-1.49,1.49-3.52,2.46-5.78,2.59-.18,.03-.36,.03-.54,.03h-3.58c-.2,0-.4,0-.6,.01-6.14,.31-11.03,5.39-11.03,11.61v20.71c0,4.43-3.41,8.07-7.74,8.44v-15.51c.7-.31,1.18-1,1.18-1.81s-.49-1.49-1.18-1.8v-10.04c0-4.36,1.45-8.37,3.88-11.61,3.44-4.58,8.87-7.6,14.99-7.74h2.24c.29,.72,1,1.22,1.82,1.22,.19,0,.38-.03,.54-.08,.58-.17,1.06-.6,1.29-1.16h7.02Z"/>
          <path class="cls-1" d="M58.28,7.74h-7.09c-.24-.56-.71-.99-1.29-1.16-.17-.06-.35-.08-.54-.08-.82,0-1.53,.52-1.84,1.24h-1.74c-.18,0-.35,0-.53,.01-2.53,.06-4.96,.57-7.18,1.48-3.93,1.56-7.25,4.29-9.58,7.74-2.24,3.31-3.55,7.32-3.55,11.61v9.99c-.75,.28-1.29,.99-1.29,1.84s.54,1.57,1.29,1.85v15.47c-4.33-.36-7.74-4.01-7.74-8.44V28.58c0-4.13,.88-8.06,2.46-11.61,1.27-2.85,2.99-5.47,5.08-7.74,.47-.5,.96-1,1.46-1.48C31.22,3.05,37.92,.13,45.3,.01c.17-.01,.32-.01,.49-.01h4.5c4.33,0,7.86,3.44,8,7.74Z"/>
        </g>
      </g>
      <g>
        <path class="cls-1" d="M36.17,.01c-4.68,1.56-8.84,4.25-12.18,7.74H10.69c-.31-.72-1.02-1.24-1.84-1.24s-1.53,.52-1.84,1.24H0C.17,5.71,1.07,3.87,2.44,2.49,3.97,.96,6.1,.01,8.44,.01h27.73Z"/>
        <path class="cls-1" d="M22.66,9.23c-1.93,2.31-3.54,4.91-4.72,7.74H8.44C4,16.97,.36,13.56,0,9.23H7.02c.31,.72,1.02,1.24,1.84,1.24s1.53-.52,1.84-1.24h11.97Z"/>
        <path class="cls-1" d="M47.52,7.74h0s-2.27,.01-2.27,.01c.18-.01,.35-.01,.53-.01h1.74Z"/>
        <path class="cls-1" d="M47.54,9.23h-2.24c.15-.01,.32-.01,.49-.01h1.75Z"/>
        <path class="cls-1" d="M49.9,16.93v.04h-4.72c.19-.01,.4-.01,.6-.01h3.58c.18,0,.36,0,.54-.03Z"/>
      </g>
    </g>
  </g>
</svg>